<?xml version="1.0" encoding="UTF-8" standalone="no"?>
<!-- Created with Inkscape (http://www.inkscape.org/) -->

<svg
   width="210mm"
   height="297mm"
   viewBox="0 0 210 297"
   version="1.1"
   id="svg1"
   xml:space="preserve"
   inkscape:version="1.4.2 (ebf0e940d0, 2025-05-08)"
   sodipodi:docname="logo-ideas.svg"
   xmlns:inkscape="http://www.inkscape.org/namespaces/inkscape"
   xmlns:sodipodi="http://sodipodi.sourceforge.net/DTD/sodipodi-0.dtd"
   xmlns="http://www.w3.org/2000/svg"
   xmlns:svg="http://www.w3.org/2000/svg"><sodipodi:namedview
     id="namedview1"
     pagecolor="#ffffff"
     bordercolor="#000000"
     borderopacity="0.25"
     inkscape:showpageshadow="2"
     inkscape:pageopacity="0.0"
     inkscape:pagecheckerboard="0"
     inkscape:deskcolor="#d1d1d1"
     inkscape:document-units="mm"
     showguides="false"
     inkscape:zoom="0.51357674"
     inkscape:cx="392.34643"
     inkscape:cy="1128.3611"
     inkscape:window-width="2560"
     inkscape:window-height="1371"
     inkscape:window-x="0"
     inkscape:window-y="0"
     inkscape:window-maximized="1"
     inkscape:current-layer="layer2" /><defs
     id="defs1" /><g
     inkscape:label="Layer 1"
     inkscape:groupmode="layer"
     id="layer1" /><g
     inkscape:groupmode="layer"
     id="layer2"
     inkscape:label="Layer 2"
     style="display:inline;opacity:1"><g
       id="g18"
       transform="translate(-2.1857143,-67.757143)"><rect
         style="display:inline;opacity:1;fill:#163b93;fill-opacity:1;stroke:none;stroke-width:0.3;stroke-opacity:1"
         id="rect14"
         width="43.987499"
         height="43.987499"
         x="29.689278"
         y="86.244644"
         rx="0"
         ry="0" /><path
         id="path14"
         style="fill:#ffffff;stroke:#decd87;stroke-width:0.3"
         d="m 41.508329,109.87767 c 1.527053,-0.0174 1.82381,1.27306 1.82381,2.00596 v 12.74523 c 0,0.7329 -0.590021,1.32292 -1.322917,1.32292 h -7.354166 c -0.732896,0 -1.331915,-0.59008 -1.322917,-1.32292 l 0.09107,-7.41755 c 0.0213,-1.73456 0.929835,-3.38228 3.053275,-4.85194 2.377089,-1.64521 3.504792,-2.46429 5.031845,-2.4817 z"
         sodipodi:nodetypes="zsssssssz" /><path
         id="path15"
         style="fill:#ffffff;stroke:#decd87;stroke-width:0.3"
         d="m 54.668151,101.68124 c 1.527053,-0.0174 1.82381,1.27306 1.82381,2.00596 v 20.94166 c 0,0.7329 -0.590021,1.32292 -1.322917,1.32292 h -7.354166 c -0.732896,0 -1.327192,-0.59004 -1.322917,-1.32292 l 0.09107,-15.61398 c 0.01012,-1.73466 0.929835,-3.38228 3.053275,-4.85194 2.377089,-1.64521 3.504792,-2.46429 5.031845,-2.4817 z"
         sodipodi:nodetypes="zsssssssz" /><g
         id="g17"
         transform="translate(1.5482143)"><path
           id="path16"
           style="fill:#fab431;fill-opacity:1;stroke:#c98505;stroke-width:0.3;stroke-opacity:1"
           d="m 59.654141,90.593304 c -1.277346,0 -1.550596,0.10639 -1.550596,1.45403 v 32.581526 c 0,0.7329 0.59002,1.32292 1.32292,1.32292 h 2.062496 c 4.5579,0 6.6183,-4.64123 6.61459,-5.55625 l -0.0911,-22.491356 c -0.012,-2.95269 -0.73561,-4.03388 -2.88252,-5.3073 -2.14691,-1.27342 -4.19844,-2.00357 -5.47579,-2.00357 z"
           sodipodi:nodetypes="zsssssszz" /><path
           style="fill:#ffffff;stroke:#decd87;stroke-width:0.3;stroke-opacity:1"
           d="m 61.495984,98.106694 -0.0228,7.718296 c 0,0 0.97901,0.36429 1.63928,0.36429 0.66027,0 2.52723,0.11384 2.52723,-2.80045 0,-2.91428 -1.03356,-3.740136 -2.21387,-4.421586 -1.18031,-0.68145 -1.92988,-0.86055 -1.92988,-0.86055 z"
           id="path17"
           sodipodi:nodetypes="ccssscc" /></g></g><g
       id="g14"
       transform="matrix(0.62732919,0,0,0.62732919,-1.4249427,55.219767)"
       style="stroke-width:1.59406"><rect
         style="display:inline;opacity:1;fill:#163b93;fill-opacity:1;stroke:none;stroke-width:0.478219;stroke-opacity:1"
         id="rect9"
         width="282.75632"
         height="67.802994"
         x="24.351318"
         y="76.389954"
         rx="0"
         ry="0" /><path
         id="path9"
         style="fill:#ffffff;stroke:#decd87;stroke-width:0.478218"
         d="m 41.508329,109.87767 c 1.527053,-0.0174 1.82381,1.27306 1.82381,2.00596 v 12.74523 c 0,0.7329 -0.590021,1.32292 -1.322917,1.32292 h -7.354166 c -0.732896,0 -1.331915,-0.59008 -1.322917,-1.32292 l 0.09107,-7.41755 c 0.0213,-1.73456 0.929835,-3.38228 3.053275,-4.85194 2.377089,-1.64521 3.504792,-2.46429 5.031845,-2.4817 z"
         sodipodi:nodetypes="zsssssssz" /><path
         id="path10"
         style="fill:#ffffff;stroke:#decd87;stroke-width:0.478218"
         d="m 54.668151,101.68124 c 1.527053,-0.0174 1.82381,1.27306 1.82381,2.00596 v 20.94166 c 0,0.7329 -0.590021,1.32292 -1.322917,1.32292 h -7.354166 c -0.732896,0 -1.327192,-0.59004 -1.322917,-1.32292 l 0.09107,-15.61398 c 0.01012,-1.73466 0.929835,-3.38228 3.053275,-4.85194 2.377089,-1.64521 3.504792,-2.46429 5.031845,-2.4817 z"
         sodipodi:nodetypes="zsssssssz" /><g
         id="g12"
         transform="translate(1.5482143)"
         style="stroke-width:1.59406"><path
           id="path11"
           style="fill:#fab431;fill-opacity:1;stroke:#c98505;stroke-width:0.478218;stroke-opacity:1"
           d="m 59.654141,90.593304 c -1.277346,0 -1.550596,0.10639 -1.550596,1.45403 v 32.581526 c 0,0.7329 0.59002,1.32292 1.32292,1.32292 h 2.062496 c 4.5579,0 6.6183,-4.64123 6.61459,-5.55625 l -0.0911,-22.491356 c -0.012,-2.95269 -0.73561,-4.03388 -2.88252,-5.3073 -2.14691,-1.27342 -4.19844,-2.00357 -5.47579,-2.00357 z"
           sodipodi:nodetypes="zsssssszz" /><path
           style="fill:#ffffff;stroke:#decd87;stroke-width:0.478218;stroke-opacity:1"
           d="m 61.495984,98.106694 -0.0228,7.718296 c 0,0 0.97901,0.36429 1.63928,0.36429 0.66027,0 2.52723,0.11384 2.52723,-2.80045 0,-2.91428 -1.03356,-3.740136 -2.21387,-4.421586 -1.18031,-0.68145 -1.92988,-0.86055 -1.92988,-0.86055 z"
           id="path12"
           sodipodi:nodetypes="ccssscc" /></g></g><g
       id="g22"
       transform="translate(34.398191,-67.801339)"><rect
         style="display:inline;opacity:1;fill:#ffffff;fill-opacity:1;stroke:#cccccc;stroke-width:0.3;stroke-opacity:1"
         id="rect18"
         width="43.987499"
         height="43.987499"
         x="80.949471"
         y="86.244644"
         rx="0"
         ry="0" /><path
         id="path18"
         style="fill:#163b93;fill-opacity:1;stroke:#decd87;stroke-width:0.3"
         d="m 92.76852,109.87767 c 1.527053,-0.0174 1.82381,1.27306 1.82381,2.00596 v 12.74523 c 0,0.7329 -0.590021,1.32292 -1.322917,1.32292 h -7.354166 c -0.732896,0 -1.331915,-0.59008 -1.322917,-1.32292 l 0.09107,-7.41755 c 0.0213,-1.73456 0.929835,-3.38228 3.053275,-4.85194 2.377089,-1.64521 3.504792,-2.46429 5.031845,-2.4817 z"
         sodipodi:nodetypes="zsssssssz" /><path
         id="path19"
         style="fill:#163b93;fill-opacity:1;stroke:#decd87;stroke-width:0.3"
         d="m 105.92834,101.68124 c 1.52705,-0.0174 1.82381,1.27306 1.82381,2.00596 v 20.94166 c 0,0.7329 -0.59002,1.32292 -1.32292,1.32292 h -7.354161 c -0.732896,0 -1.327192,-0.59004 -1.322917,-1.32292 l 0.09107,-15.61398 c 0.01012,-1.73466 0.929835,-3.38228 3.053278,-4.85194 2.37709,-1.64521 3.50479,-2.46429 5.03184,-2.4817 z"
         sodipodi:nodetypes="zsssssssz" /><g
         id="g21"
         transform="translate(52.808405)"
         style="stroke:#decd87;stroke-opacity:1"><path
           id="path20"
           style="fill:#fab431;fill-opacity:1;stroke:#decd87;stroke-width:0.3;stroke-opacity:1"
           d="m 59.654141,90.593304 c -1.277346,0 -1.550596,0.10639 -1.550596,1.45403 v 32.581526 c 0,0.7329 0.59002,1.32292 1.32292,1.32292 h 2.062496 c 4.5579,0 6.6183,-4.64123 6.61459,-5.55625 l -0.0911,-22.491356 c -0.012,-2.95269 -0.73561,-4.03388 -2.88252,-5.3073 -2.14691,-1.27342 -4.19844,-2.00357 -5.47579,-2.00357 z"
           sodipodi:nodetypes="zsssssszz" /><path
           style="fill:#ffffff;stroke:#decd87;stroke-width:0.3;stroke-opacity:1"
           d="m 61.495984,98.106694 -0.0228,7.718296 c 0,0 0.97901,0.36429 1.63928,0.36429 0.66027,0 2.52723,0.11384 2.52723,-2.80045 0,-2.91428 -1.03356,-3.740136 -2.21387,-4.421586 -1.18031,-0.68145 -1.92988,-0.86055 -1.92988,-0.86055 z"
           id="path21"
           sodipodi:nodetypes="ccssscc" /></g></g><g
       id="g13"
       transform="matrix(0.61886125,0,0,0.61877636,-32.381265,106.03702)"
       style="stroke-width:1.61598"><path
         id="path6"
         style="fill:#163b93;fill-opacity:1;stroke:#decd87;stroke-width:0.484795"
         d="m 92.76852,109.87767 c 1.527053,-0.0174 1.82381,1.27306 1.82381,2.00596 v 12.74523 c 0,0.7329 -0.590021,1.32292 -1.322917,1.32292 h -7.354166 c -0.732896,0 -1.331915,-0.59008 -1.322917,-1.32292 l 0.09107,-7.41755 c 0.0213,-1.73456 0.929835,-3.38228 3.053275,-4.85194 2.377089,-1.64521 3.504792,-2.46429 5.031845,-2.4817 z"
         sodipodi:nodetypes="zsssssssz" /><path
         id="path7"
         style="fill:#163b93;fill-opacity:1;stroke:#decd87;stroke-width:0.484795"
         d="m 105.92834,101.68124 c 1.52705,-0.0174 1.82381,1.27306 1.82381,2.00596 v 20.94166 c 0,0.7329 -0.59002,1.32292 -1.32292,1.32292 h -7.354161 c -0.732896,0 -1.327192,-0.59004 -1.322917,-1.32292 l 0.09107,-15.61398 c 0.01012,-1.73466 0.929835,-3.38228 3.053278,-4.85194 2.37709,-1.64521 3.50479,-2.46429 5.03184,-2.4817 z"
         sodipodi:nodetypes="zsssssssz" /><g
         id="g8"
         transform="translate(52.808405)"
         style="stroke:#decd87;stroke-width:1.61598;stroke-opacity:1"><path
           id="rect5"
           style="fill:#fab431;fill-opacity:1;stroke:#decd87;stroke-width:0.484795;stroke-opacity:1"
           d="m 59.654141,90.593304 c -1.277346,0 -1.550596,0.10639 -1.550596,1.45403 v 32.581526 c 0,0.7329 0.59002,1.32292 1.32292,1.32292 h 2.062496 c 4.5579,0 6.6183,-4.64123 6.61459,-5.55625 l -0.0911,-22.491356 c -0.012,-2.95269 -0.73561,-4.03388 -2.88252,-5.3073 -2.14691,-1.27342 -4.19844,-2.00357 -5.47579,-2.00357 z"
           sodipodi:nodetypes="zsssssszz" /><path
           style="fill:#ffffff;stroke:#decd87;stroke-width:0.484795;stroke-opacity:1"
           d="m 61.495984,98.106694 -0.0228,7.718296 c 0,0 0.97901,0.36429 1.63928,0.36429 0.66027,0 2.52723,0.11384 2.52723,-2.80045 0,-2.91428 -1.03356,-3.740136 -2.21387,-4.421586 -1.18031,-0.68145 -1.92988,-0.86055 -1.92988,-0.86055 z"
           id="path8"
           sodipodi:nodetypes="ccssscc" /></g></g><path
       style="fill:#ffffff;fill-opacity:1;stroke-width:0.999999"
       d="m 121.91717,138.23766 c -0.17809,-0.33277 -0.20388,-15.28087 -0.0265,-15.3489 0.0783,-0.0301 0.59351,-0.0546 1.14496,-0.0546 1.13565,0 1.148,0.009 1.27959,0.88611 0.075,0.49981 0.0823,0.50808 0.3044,0.34474 2.90364,-2.13493 5.81845,-1.93456 6.63299,0.45599 0.71829,2.10807 0.44244,7.07818 -0.46614,8.39877 -1.04171,1.51406 -3.77336,1.95854 -6.01937,0.97944 -0.17465,-0.0761 -0.187,0.0625 -0.187,2.09913 0,1.55358 -0.0369,2.21753 -0.12823,2.30888 -0.23159,0.23158 -2.40547,0.17189 -2.53472,-0.0696 z m 6.06916,-6.41755 c 1.0464,-0.7463 1.29499,-5.55389 0.33476,-6.47386 -0.6485,-0.6213 -1.9043,-0.44513 -3.09966,0.43484 l -0.64131,0.47212 v 2.72122 2.72123 l 0.66786,0.21674 c 0.95455,0.30977 2.23514,0.26662 2.73835,-0.0923 z m -52.026672,2.59851 c -1.290544,-0.22341 -1.639975,-0.32397 -2.267177,-0.65239 -1.648759,-0.86333 -2.113324,-2.04609 -2.111344,-5.37542 0.0026,-4.27428 1.359583,-5.80849 5.126528,-5.79582 4.056509,0.0136 5.701415,2.72723 4.921568,8.1191 -0.3621,2.50355 -2.926832,4.17936 -5.669575,3.70453 z m 1.784533,-2.51666 c 0.938566,-0.28747 1.251587,-1.1389 1.251587,-3.40429 0,-2.8431 -0.453673,-3.52632 -2.341541,-3.52632 -1.911845,0 -2.349998,0.66728 -2.350541,3.57975 -5.81e-4,3.11467 1.007143,4.09614 3.440495,3.35086 z m 17.687829,2.46297 c -2.134647,-0.32422 -3.320392,-1.53267 -3.209273,-3.27074 l 0.0328,-0.51279 h 1.225906 1.225914 l 0.07987,0.46802 c 0.255623,1.49741 2.811878,1.88194 3.478879,0.52332 0.387989,-0.79029 -0.09191,-1.2767 -2.091173,-2.11954 -3.419155,-1.44143 -3.985823,-2.03723 -3.842082,-4.03959 0.270493,-3.76805 7.819159,-3.95585 8.411399,-0.20926 0.13372,0.84583 0.14882,0.83558 -1.231788,0.83558 H 98.29707 l -0.06543,-0.29386 c -0.03595,-0.16162 -0.08846,-0.37882 -0.116656,-0.48266 -0.224827,-0.82791 -2.68275,-0.80442 -3.027946,0.029 -0.347387,0.83866 0.0025,1.14485 2.504337,2.19259 2.828605,1.1845 3.349555,1.68534 3.456535,3.32309 0.16426,2.51464 -2.281061,4.0634 -5.615934,3.55689 z m 67.32063,-0.006 c -2.0886,-0.29945 -3.14919,-1.3263 -3.16858,-3.06777 l -0.008,-0.71005 h 1.22408 1.22409 l 0.084,0.40418 c 0.36823,1.77229 3.6122,1.93711 3.6122,0.18353 0,-0.6951 -0.40944,-0.99276 -2.5941,-1.88591 -3.18715,-1.30302 -3.97945,-2.38326 -3.34605,-4.56208 0.90557,-3.11506 7.4687,-2.89151 8.25161,0.28106 0.25696,1.04126 0.26093,1.03774 -1.17342,1.03774 h -1.21954 l -0.12067,-0.47927 c -0.3487,-1.3848 -3.18525,-1.22241 -3.14847,0.18025 0.009,0.34569 0.075,0.49818 0.28905,0.66889 0.27385,0.21837 0.49147,0.31913 2.78803,1.29084 2.36684,1.00145 2.94634,1.67157 2.94396,3.40428 -0.003,2.35143 -2.3775,3.72182 -5.63826,3.25431 z m 11.57409,0.003 c -2.90177,-0.42275 -3.76759,-1.56656 -3.87525,-5.11953 -0.14155,-4.67131 0.82327,-6.2138 4.13824,-6.61596 3.63932,-0.44152 5.55131,1.17814 5.73252,4.85606 0.0896,1.81939 0.47138,1.64653 -3.71135,1.68061 l -3.46376,0.0282 0.0267,0.68326 c 0.0703,1.79782 0.80776,2.465 2.58398,2.33792 0.96961,-0.0694 1.4028,-0.31899 1.59463,-0.91885 l 0.14474,-0.45262 1.24442,0.03 1.24441,0.03 0.0338,0.47359 c 0.14573,2.04133 -2.53416,3.44753 -5.69313,2.98729 z m 3.25268,-7.5482 c -0.0124,-2.67677 -3.94245,-2.85721 -4.35913,-0.20014 -0.12062,0.76921 -0.3108,0.70771 2.18868,0.70771 h 2.17279 z m -122.177308,6.83892 c -0.09065,-0.27917 -0.553767,-1.90208 -1.029152,-3.60647 -1.054259,-3.77981 -2.62878,-9.40884 -2.850731,-10.19156 -0.136377,-0.48094 -0.139275,-0.58927 -0.01783,-0.66623 0.184508,-0.11691 2.34325,-0.12095 2.52642,-0.005 0.195374,0.12397 2.356855,8.15116 2.859761,10.62044 0.145,0.71195 0.282378,1.31319 0.305284,1.3361 0.04321,0.0432 0.302839,-0.72831 0.709777,-2.10917 0.129901,-0.44078 0.636429,-2.09165 1.125617,-3.66859 l 0.889433,-2.86717 -0.957417,-1.92393 c -0.827807,-1.66347 -0.593288,-1.68671 0.902916,-1.68671 1.582769,0 1.574207,-0.72094 4.229304,9.13125 0.285096,1.0579 0.552805,2.11579 0.594908,2.35088 0.193918,1.08274 0.24968,0.9899 0.636793,-1.0603 0.154501,-0.81826 0.465121,-2.18871 0.690267,-3.04546 0.225147,-0.85675 0.709435,-2.71179 1.076197,-4.12231 0.859594,-3.30592 0.672031,-3.04546 2.19318,-3.04546 1.02387,0 1.240641,0.0284 1.294755,0.16937 0.06131,0.15977 -3.723995,14.3082 -3.936472,14.71345 -0.0896,0.17089 -0.256203,0.18688 -1.670077,0.16029 l -1.57055,-0.0296 -0.139497,-0.42619 c -0.158742,-0.485 -1.263067,-4.3834 -1.786304,-6.30587 -0.191951,-0.70527 -0.378233,-1.21017 -0.413961,-1.12201 -0.03573,0.0882 -0.404328,1.29031 -0.819112,2.67145 -0.414784,1.38114 -0.945858,3.12427 -1.180164,3.87361 l -0.426011,1.36244 h -1.536261 -1.536259 z m 29.018508,0.37038 c -0.07672,-0.0925 -0.120103,-1.92919 -0.133014,-5.63676 l -0.01918,-5.49958 1.129418,-0.0303 c 1.316267,-0.0353 1.304742,-0.0439 1.411826,1.05658 l 0.06651,0.68342 0.702604,-0.6693 c 1.153123,-1.09847 2.721285,-1.67068 3.288477,-1.19996 0.171655,0.14247 0.220568,1.33958 0.09282,2.27164 l -0.06659,0.48564 -0.921877,0.0381 c -1.048895,0.0433 -1.639643,0.28118 -2.432849,0.97939 l -0.465903,0.4101 v 3.45507 c 0,1.90029 -0.02923,3.53113 -0.06485,3.6241 -0.08578,0.22354 -2.404642,0.25206 -2.587424,0.0318 z m 19.05203,0.007 c -0.0288,-0.0753 -0.0398,-3.59918 -0.0247,-7.83077 l 0.0277,-7.69379 h 1.2823 1.2823 l 0.0285,2.85846 c 0.0157,1.57215 0.0558,2.85846 0.0892,2.85846 0.0334,0 0.33313,-0.21118 0.66612,-0.46928 2.27584,-1.76412 5.13306,-1.52879 6.08736,0.50139 0.41094,0.87426 0.69526,9.03154 0.33805,9.69901 -0.15228,0.28454 -2.49509,0.31845 -2.60283,0.0377 -0.0357,-0.093 -0.0651,-1.86013 -0.0654,-3.92704 -3.4e-4,-2.15771 -0.0457,-3.92065 -0.10669,-4.13995 -0.35769,-1.28758 -2.31026,-1.22713 -3.87183,0.11989 l -0.50624,0.43667 -0.0281,3.81302 -0.0281,3.81301 -1.25762,0.0301 c -0.94669,0.0227 -1.27057,-0.003 -1.30995,-0.10686 z m 12.82284,0 c -0.0289,-0.0753 -0.0399,-2.61342 -0.0247,-5.64017 l 0.0278,-5.5032 h 1.2823 1.28229 v 5.61005 5.61005 l -1.25763,0.0301 c -0.94664,0.0227 -1.2706,-0.004 -1.31009,-0.10685 z m 21.03275,-0.003 c -0.0556,-0.0735 -0.47556,-1.47998 -0.93333,-3.1256 -0.45776,-1.64561 -1.08642,-3.90566 -1.39702,-5.02233 -0.3106,-1.11667 -0.83787,-3.00314 -1.17172,-4.19216 -0.76745,-2.73335 -0.81754,-2.53269 0.64143,-2.56988 1.52757,-0.0389 1.40324,-0.18696 2.1345,2.54114 0.3387,1.2636 0.85004,3.163 1.13632,4.2209 0.52536,1.94142 1.16069,4.74767 1.16069,5.12678 0,0.51134 0.27435,-0.2688 1.49915,-4.26285 l 1.30797,-4.26526 -0.42501,-1.39822 c -0.23375,-0.76903 -0.40339,-1.45833 -0.37697,-1.53179 0.0995,-0.27683 2.57526,-0.17871 2.69604,0.10685 0.056,0.13224 0.4434,1.51471 0.86105,3.07217 0.41765,1.55746 1.03788,3.8656 1.37831,5.12919 0.34042,1.2636 0.65339,2.50182 0.69548,2.7516 0.12368,0.73376 0.20775,0.54922 0.5667,-1.24389 0.51441,-2.56977 2.46735,-9.97748 2.67234,-10.1365 0.1983,-0.15384 2.33993,-0.18661 2.57227,-0.0394 0.12448,0.0789 -2.37345,9.6113 -3.73528,14.25425 l -0.21236,0.72405 -1.61907,-0.0295 -1.61906,-0.0295 -0.45627,-1.60287 c -0.52969,-1.86078 -1.46619,-5.23947 -1.63944,-5.9147 -0.17075,-0.66553 0.0183,-1.17729 -1.7708,4.79269 -0.37868,1.2636 -0.73485,2.40564 -0.79149,2.53788 -0.12274,0.2866 -2.96609,0.38231 -3.17443,0.10686 z m 17.03289,0.0655 c -0.1585,-0.1585 -0.0859,-11.00955 0.0746,-11.14272 0.0981,-0.0815 0.54532,-0.11327 1.30901,-0.0932 l 1.16,0.0305 v 5.61006 5.61005 l -1.23457,0.0299 c -0.679,0.0164 -1.26806,-0.003 -1.30901,-0.0445 z m -37.65661,-13.07119 c -0.94189,-0.57431 -0.90923,-2.53548 0.0483,-2.89974 1.29811,-0.49383 2.37754,0.16178 2.37754,1.44403 0,1.08691 -0.53753,1.66429 -1.54943,1.66429 -0.34185,0 -0.65752,-0.0751 -0.8764,-0.20858 z m 38.05447,0.0141 c -0.90411,-0.56836 -0.91601,-2.39968 -0.0186,-2.86374 0.67124,-0.34712 1.84352,-0.17042 2.16944,0.32697 1.0206,1.55765 -0.62359,3.49686 -2.15084,2.53677 z"
       id="path23"
       sodipodi:nodetypes="ccsscsssscccssscccsssssccssssssscscccssssssccsscscccccccsssssscscssccccsssscssscccsccssscscssscsssscssssssssssccssssscccccscsscsssccscscccccccccscsssscscccccccccccccccccssscsssscsccssssssscccssssccscsccccsssssssssscs" /><path
       style="fill:#163b93;fill-opacity:1;stroke-width:0.999999"
       d="m 123.37431,186.50552 c -0.17809,-0.33277 -0.20388,-15.28087 -0.0265,-15.3489 0.0783,-0.0301 0.59351,-0.0546 1.14496,-0.0546 1.13565,0 1.148,0.009 1.27959,0.88611 0.075,0.49981 0.0823,0.50808 0.3044,0.34474 2.90364,-2.13493 5.81845,-1.93456 6.63299,0.45599 0.71829,2.10807 0.44244,7.07818 -0.46614,8.39877 -1.04171,1.51406 -3.77336,1.95854 -6.01937,0.97944 -0.17465,-0.0761 -0.187,0.0625 -0.187,2.09913 0,1.55358 -0.0369,2.21753 -0.12823,2.30888 -0.23159,0.23158 -2.40547,0.17189 -2.53472,-0.0696 z m 6.06916,-6.41755 c 1.0464,-0.7463 1.29499,-5.55389 0.33476,-6.47386 -0.6485,-0.6213 -1.9043,-0.44513 -3.09966,0.43484 l -0.64131,0.47212 v 2.72122 2.72123 l 0.66786,0.21674 c 0.95455,0.30977 2.23514,0.26662 2.73835,-0.0923 z m -52.02667,2.59851 c -1.290544,-0.22341 -1.639975,-0.32397 -2.267177,-0.65239 -1.648759,-0.86333 -2.113324,-2.04609 -2.111344,-5.37542 0.0026,-4.27428 1.359583,-5.80849 5.126528,-5.79582 4.056509,0.0136 5.701415,2.72723 4.921568,8.1191 -0.3621,2.50355 -2.926832,4.17936 -5.669575,3.70453 z m 1.784533,-2.51666 c 0.938566,-0.28747 1.251587,-1.1389 1.251587,-3.40429 0,-2.8431 -0.453673,-3.52632 -2.341541,-3.52632 -1.911845,0 -2.349998,0.66728 -2.350541,3.57975 -5.81e-4,3.11467 1.007143,4.09614 3.440495,3.35086 z m 17.687829,2.46297 c -2.134647,-0.32422 -3.320392,-1.53267 -3.209273,-3.27074 l 0.0328,-0.51279 h 1.225906 1.225914 l 0.07987,0.46802 c 0.255623,1.49741 2.811878,1.88194 3.478879,0.52332 0.387992,-0.79029 -0.09191,-1.2767 -2.091173,-2.11954 -3.419155,-1.44143 -3.985823,-2.03723 -3.842082,-4.03959 0.270493,-3.76805 7.819157,-3.95585 8.411407,-0.20926 0.13371,0.84583 0.14881,0.83558 -1.2318,0.83558 h -1.215398 l -0.06543,-0.29386 c -0.03595,-0.16162 -0.08846,-0.37882 -0.116656,-0.48266 -0.224827,-0.82791 -2.68275,-0.80442 -3.027946,0.029 -0.347387,0.83866 0.0025,1.14485 2.504337,2.19259 2.828613,1.1845 3.349563,1.68534 3.456533,3.32309 0.16426,2.51464 -2.28106,4.0634 -5.615932,3.55689 z m 67.320628,-0.006 c -2.0886,-0.29945 -3.14919,-1.3263 -3.16858,-3.06777 l -0.008,-0.71005 h 1.22408 1.22409 l 0.084,0.40418 c 0.36823,1.77229 3.6122,1.93711 3.6122,0.18353 0,-0.6951 -0.40944,-0.99276 -2.5941,-1.88591 -3.18715,-1.30302 -3.97945,-2.38326 -3.34605,-4.56208 0.90557,-3.11506 7.4687,-2.89151 8.25161,0.28106 0.25696,1.04126 0.26093,1.03774 -1.17342,1.03774 h -1.21954 l -0.12067,-0.47927 c -0.3487,-1.3848 -3.18525,-1.22241 -3.14847,0.18025 0.009,0.34569 0.075,0.49818 0.28905,0.66889 0.27385,0.21837 0.49147,0.31913 2.78803,1.29084 2.36684,1.00145 2.94634,1.67157 2.94396,3.40428 -0.003,2.35143 -2.3775,3.72182 -5.63826,3.25431 z m 11.57409,0.003 c -2.90177,-0.42275 -3.76759,-1.56656 -3.87525,-5.11953 -0.14155,-4.67131 0.82327,-6.2138 4.13824,-6.61596 3.63932,-0.44152 5.55131,1.17814 5.73252,4.85606 0.0896,1.81939 0.47138,1.64653 -3.71135,1.68061 l -3.46376,0.0282 0.0267,0.68326 c 0.0703,1.79782 0.80776,2.465 2.58398,2.33792 0.96961,-0.0694 1.4028,-0.31899 1.59463,-0.91885 l 0.14474,-0.45262 1.24442,0.03 1.24441,0.03 0.0338,0.47359 c 0.14573,2.04133 -2.53416,3.44753 -5.69313,2.98729 z m 3.25268,-7.5482 c -0.0124,-2.67677 -3.94245,-2.85721 -4.35913,-0.20014 -0.12062,0.76921 -0.3108,0.70771 2.18868,0.70771 h 2.17279 z m -122.177306,6.83892 c -0.09065,-0.27917 -0.553767,-1.90208 -1.029152,-3.60647 -1.054259,-3.77981 -2.62878,-9.40884 -2.850731,-10.19156 -0.136377,-0.48094 -0.139275,-0.58927 -0.01783,-0.66623 0.184508,-0.11691 2.34325,-0.12095 2.52642,-0.005 0.195374,0.12397 2.356855,8.15116 2.859761,10.62044 0.145,0.71195 0.282378,1.31319 0.305284,1.3361 0.04321,0.0432 0.302839,-0.72831 0.709777,-2.10917 0.129901,-0.44078 0.636429,-2.09165 1.125617,-3.66859 l 0.889433,-2.86717 -0.42825,-1.39476 c -0.54537,-1.77623 -0.593288,-1.68671 0.902916,-1.68671 1.582769,0 1.04504,-1.25011 3.700137,8.60208 0.285096,1.0579 0.552805,2.11579 0.594908,2.35088 0.193918,1.08274 0.24968,0.9899 0.636793,-1.0603 0.154501,-0.81826 0.465121,-2.18871 0.690267,-3.04546 0.225147,-0.85675 0.709435,-2.71179 1.076197,-4.12231 0.859594,-3.30592 0.672031,-3.04546 2.19318,-3.04546 1.02387,0 1.240641,0.0284 1.294755,0.16937 0.06131,0.15977 -3.723995,14.3082 -3.936472,14.71345 -0.0896,0.17089 -0.256203,0.18688 -1.670077,0.16029 l -1.57055,-0.0296 -0.139497,-0.42619 c -0.158742,-0.485 -1.263067,-4.3834 -1.786304,-6.30587 -0.191951,-0.70527 -0.378233,-1.21017 -0.413961,-1.12201 -0.03573,0.0882 -0.404328,1.29031 -0.819112,2.67145 -0.414784,1.38114 -0.945858,3.12427 -1.180164,3.87361 l -0.426011,1.36244 h -1.536261 -1.536259 z m 29.018508,0.37038 c -0.07672,-0.0925 -0.120103,-1.92919 -0.133014,-5.63676 l -0.01918,-5.49958 1.129418,-0.0303 c 1.316267,-0.0353 1.304742,-0.0439 1.411826,1.05658 l 0.06651,0.68342 0.702604,-0.6693 c 1.153123,-1.09847 2.721285,-1.67068 3.288477,-1.19996 0.171655,0.14247 0.220568,1.33958 0.09282,2.27164 l -0.06659,0.48564 -0.921877,0.0381 c -1.048895,0.0433 -1.639643,0.28118 -2.432849,0.97939 l -0.465903,0.4101 v 3.45507 c 0,1.90029 -0.02923,3.53113 -0.06485,3.6241 -0.08578,0.22354 -2.404642,0.25206 -2.587424,0.0318 z m 19.052028,0.007 c -0.0288,-0.0753 -0.0398,-3.59918 -0.0247,-7.83077 l 0.0277,-7.69379 h 1.2823 1.2823 l 0.0285,2.85846 c 0.0157,1.57215 0.0558,2.85846 0.0892,2.85846 0.0334,0 0.33313,-0.21118 0.66612,-0.46928 2.27584,-1.76412 5.13306,-1.52879 6.08736,0.50139 0.41094,0.87426 0.69526,9.03154 0.33805,9.69901 -0.15228,0.28454 -2.49509,0.31845 -2.60283,0.0377 -0.0357,-0.093 -0.0651,-1.86013 -0.0654,-3.92704 -3.4e-4,-2.15771 -0.0457,-3.92065 -0.10669,-4.13995 -0.35769,-1.28758 -2.31026,-1.22713 -3.87183,0.11989 l -0.50624,0.43667 -0.0281,3.81302 -0.0281,3.81301 -1.25762,0.0301 c -0.94669,0.0227 -1.27057,-0.003 -1.30995,-0.10686 z m 12.82284,0 c -0.0289,-0.0753 -0.0399,-2.61342 -0.0247,-5.64017 l 0.0278,-5.5032 h 1.2823 1.28229 v 5.61005 5.61005 l -1.25763,0.0301 c -0.94664,0.0227 -1.2706,-0.004 -1.31009,-0.10685 z m 21.03275,-0.003 c -0.0556,-0.0735 -0.47556,-1.47998 -0.93333,-3.1256 -0.45776,-1.64561 -1.08642,-3.90566 -1.39702,-5.02233 -0.3106,-1.11667 -0.83787,-3.00314 -1.17172,-4.19216 -0.76745,-2.73335 -0.81754,-2.53269 0.64143,-2.56988 1.52757,-0.0389 1.40324,-0.18696 2.1345,2.54114 0.3387,1.2636 0.85004,3.163 1.13632,4.2209 0.52536,1.94142 1.16069,4.74767 1.16069,5.12678 0,0.51134 0.27435,-0.2688 1.49915,-4.26285 l 1.30797,-4.26526 -0.42501,-1.39822 c -0.23375,-0.76903 -0.40339,-1.45833 -0.37697,-1.53179 0.0995,-0.27683 2.57526,-0.17871 2.69604,0.10685 0.056,0.13224 0.4434,1.51471 0.86105,3.07217 0.41765,1.55746 1.03788,3.8656 1.37831,5.12919 0.34042,1.2636 0.65339,2.50182 0.69548,2.7516 0.12368,0.73376 0.20775,0.54922 0.5667,-1.24389 0.51441,-2.56977 2.46735,-9.97748 2.67234,-10.1365 0.1983,-0.15384 2.33993,-0.18661 2.57227,-0.0394 0.12448,0.0789 -2.37345,9.6113 -3.73528,14.25425 l -0.21236,0.72405 -1.61907,-0.0295 -1.61906,-0.0295 -0.45627,-1.60287 c -0.52969,-1.86078 -1.46619,-5.23947 -1.63944,-5.9147 -0.17075,-0.66553 0.0183,-1.17729 -1.7708,4.79269 -0.37868,1.2636 -0.73485,2.40564 -0.79149,2.53788 -0.12274,0.2866 -2.96609,0.38231 -3.17443,0.10686 z m 17.03289,0.0655 c -0.1585,-0.1585 -0.0859,-11.00955 0.0746,-11.14272 0.0981,-0.0815 0.54532,-0.11327 1.30901,-0.0932 l 1.16,0.0305 v 5.61006 5.61005 l -1.23457,0.0299 c -0.679,0.0164 -1.26806,-0.003 -1.30901,-0.0445 z M 118.16166,169.2892 c -0.94189,-0.57431 -0.90923,-2.53548 0.0483,-2.89974 1.29811,-0.49383 2.37754,0.16178 2.37754,1.44403 0,1.08691 -0.53753,1.66429 -1.54943,1.66429 -0.34185,0 -0.65752,-0.0751 -0.8764,-0.20858 z m 38.05447,0.0141 c -0.90411,-0.56836 -0.91601,-2.39968 -0.0186,-2.86374 0.67124,-0.34712 1.84352,-0.17042 2.16944,0.32697 1.0206,1.55765 -0.62359,3.49686 -2.15084,2.53677 z"
       id="path24"
       sodipodi:nodetypes="ccsscsssscccssscccsssssccssssssscscccssssssccsscscccccccsssssscscssccccsssscssscccsccssscscssscsssscssssssssssccssssscccccscsscsssccscscccccccccscsssscscccccccccccccccccssscsssscsccssssssscccssssccscsccccsssssssssscs" /><path
       style="fill:#163b93;fill-opacity:1;stroke-width:0.999999"
       d="m 122.35311,274.73405 c -0.17809,-0.33277 -0.20388,-15.28087 -0.0265,-15.3489 0.0783,-0.0301 0.59351,-0.0546 1.14496,-0.0546 1.13565,0 1.148,0.009 1.27959,0.88611 0.075,0.49981 0.0823,0.50808 0.3044,0.34474 2.90364,-2.13493 5.81845,-1.93456 6.63299,0.45599 0.71829,2.10807 0.44244,7.07818 -0.46614,8.39877 -1.04171,1.51406 -3.77336,1.95854 -6.01937,0.97944 -0.17465,-0.0761 -0.187,0.0625 -0.187,2.09913 0,1.55358 -0.0369,2.21753 -0.12823,2.30888 -0.23159,0.23158 -2.40547,0.17189 -2.53472,-0.0696 z m 6.06916,-6.41755 c 1.0464,-0.7463 1.29499,-5.55389 0.33476,-6.47386 -0.6485,-0.6213 -1.9043,-0.44513 -3.09966,0.43484 l -0.64131,0.47212 v 2.72122 2.72123 l 0.66786,0.21674 c 0.95455,0.30977 2.23514,0.26662 2.73835,-0.0923 z m -52.026673,2.59851 c -1.290544,-0.22341 -1.639975,-0.32397 -2.267177,-0.65239 -1.648759,-0.86333 -2.113324,-2.04609 -2.111344,-5.37542 0.0026,-4.27428 1.359583,-5.80849 5.126528,-5.79582 4.056509,0.0136 5.701415,2.72723 4.921568,8.1191 -0.3621,2.50355 -2.926832,4.17936 -5.669575,3.70453 z m 1.784533,-2.51666 c 0.938566,-0.28747 1.251587,-1.1389 1.251587,-3.40429 0,-2.8431 -0.453673,-3.52632 -2.341541,-3.52632 -1.911845,0 -2.349998,0.66728 -2.350541,3.57975 -5.81e-4,3.11467 1.007143,4.09614 3.440495,3.35086 z m 17.687826,2.46297 c -2.134644,-0.32422 -3.320389,-1.53267 -3.20927,-3.27074 l 0.0328,-0.51279 h 1.225906 1.225914 l 0.0799,0.46802 c 0.25562,1.49741 2.81188,1.88194 3.47888,0.52332 0.38799,-0.79029 -0.0919,-1.2767 -2.09117,-2.11954 -3.419159,-1.44143 -3.985827,-2.03723 -3.842086,-4.03959 0.270493,-3.76805 7.81916,-3.95585 8.41141,-0.20926 0.13371,0.84583 0.14881,0.83558 -1.231804,0.83558 h -1.21542 l -0.0654,-0.29386 c -0.0359,-0.16162 -0.0885,-0.37882 -0.11666,-0.48266 -0.22483,-0.82791 -2.68275,-0.80442 -3.02795,0.029 -0.34739,0.83866 0.002,1.14485 2.50434,2.19259 2.828614,1.1845 3.349564,1.68534 3.456534,3.32309 0.16426,2.51464 -2.281064,4.0634 -5.615934,3.55689 z m -11.011397,-0.3419 c -0.07672,-0.0925 -0.120103,-1.92919 -0.133014,-5.63676 l -0.01918,-5.49958 1.129418,-0.0303 c 1.316267,-0.0353 1.304742,-0.0439 1.411826,1.05658 l 0.06651,0.68342 0.702604,-0.6693 c 1.153123,-1.09847 2.721285,-1.67068 3.288477,-1.19996 0.171655,0.14247 0.220568,1.33958 0.09282,2.27164 l -0.06659,0.48564 -0.921877,0.0381 c -1.048895,0.0433 -1.639643,0.28118 -2.432849,0.97939 l -0.465903,0.4101 v 3.45507 c 0,1.90029 -0.02923,3.53113 -0.06485,3.6241 -0.08578,0.22354 -2.404642,0.25206 -2.587424,0.0318 z m 19.052031,0.007 c -0.0288,-0.0753 -0.0398,-3.59918 -0.0247,-7.83077 l 0.0277,-7.69379 h 1.2823 1.2823 l 0.0285,2.85846 c 0.0157,1.57215 0.0558,2.85846 0.0892,2.85846 0.0334,0 0.33313,-0.21118 0.66612,-0.46928 2.27584,-1.76412 5.13306,-1.52879 6.08736,0.50139 0.41094,0.87426 0.69526,9.03154 0.33805,9.69901 -0.15228,0.28454 -2.49509,0.31845 -2.60283,0.0377 -0.0357,-0.093 -0.0651,-1.86013 -0.0654,-3.92704 -3.4e-4,-2.15771 -0.0457,-3.92065 -0.10669,-4.13995 -0.35769,-1.28758 -2.31026,-1.22713 -3.87183,0.11989 l -0.50624,0.43667 -0.0281,3.81302 -0.0281,3.81301 -1.25762,0.0301 c -0.94669,0.0227 -1.27057,-0.003 -1.30995,-0.10686 z m 12.82284,0 c -0.0289,-0.0753 -0.0399,-2.61342 -0.0247,-5.64017 l 0.0278,-5.5032 h 1.2823 1.28229 v 5.61005 5.61005 l -1.25763,0.0301 c -0.94664,0.0227 -1.2706,-0.004 -1.31009,-0.10685 z m 0.40903,-13.00869 c -0.94189,-0.57431 -0.90923,-2.53548 0.0483,-2.89974 1.29811,-0.49383 2.37754,0.16178 2.37754,1.44403 0,1.08691 -0.53753,1.66429 -1.54943,1.66429 -0.34185,0 -0.65752,-0.0751 -0.8764,-0.20858 z"
       id="path27"
       sodipodi:nodetypes="ccsscsssscccssscccsssssccssssssscscccssssssccsscscccscsscsssccscscccccccccscsssscsccccccccccccccccssssss" /><path
       style="fill:#163b93;fill-opacity:1;stroke-width:0.999999"
       d="m 163.44618,271.11291 c -2.0886,-0.29945 -3.14919,-1.3263 -3.16858,-3.06777 l -0.008,-0.71005 h 1.22408 1.22409 l 0.084,0.40418 c 0.36823,1.77229 3.6122,1.93711 3.6122,0.18353 0,-0.6951 -0.40944,-0.99276 -2.5941,-1.88591 -3.18715,-1.30302 -3.97945,-2.38326 -3.34605,-4.56208 0.90557,-3.11506 7.4687,-2.89151 8.25161,0.28106 0.25696,1.04126 0.26093,1.03774 -1.17342,1.03774 h -1.21954 l -0.12067,-0.47927 c -0.3487,-1.3848 -3.18525,-1.22241 -3.14847,0.18025 0.009,0.34569 0.075,0.49818 0.28905,0.66889 0.27385,0.21837 0.49147,0.31913 2.78803,1.29084 2.36684,1.00145 2.94634,1.67157 2.94396,3.40428 -0.003,2.35143 -2.3775,3.72182 -5.63826,3.25431 z m 11.57409,0.003 c -2.90177,-0.42275 -3.76759,-1.56656 -3.87525,-5.11953 -0.14155,-4.67131 0.82327,-6.2138 4.13824,-6.61596 3.63932,-0.44152 5.55131,1.17814 5.73252,4.85606 0.0896,1.81939 0.47138,1.64653 -3.71135,1.68061 l -3.46376,0.0282 0.0267,0.68326 c 0.0703,1.79782 0.80776,2.465 2.58398,2.33792 0.96961,-0.0694 1.4028,-0.31899 1.59463,-0.91885 l 0.14474,-0.45262 1.24442,0.03 1.24441,0.03 0.0338,0.47359 c 0.14573,2.04133 -2.53416,3.44753 -5.69313,2.98729 z m 3.25268,-7.5482 c -0.0124,-2.67677 -3.94245,-2.85721 -4.35913,-0.20014 -0.12062,0.76921 -0.3108,0.70771 2.18868,0.70771 h 2.17279 z m -23.21829,7.2788 c -0.1585,-0.1585 -0.0859,-11.00955 0.0746,-11.14272 0.0981,-0.0815 0.54532,-0.11327 1.30901,-0.0932 l 1.16,0.0305 v 5.61006 5.61005 l -1.23457,0.0299 c -0.679,0.0164 -1.26806,-0.003 -1.30901,-0.0445 z m 0.39786,-13.05709 c -0.90411,-0.56836 -0.91601,-2.39968 -0.0186,-2.86374 0.67124,-0.34712 1.84352,-0.17042 2.16944,0.32697 1.0206,1.55765 -0.62359,3.49686 -2.15084,2.53677 z"
       id="path25"
       sodipodi:nodetypes="cccccsssssscscssccccsssscssscccsccssscsscsccccsssscs" /><path
       style="fill:#163b93;fill-opacity:1;stroke-width:0.999999"
       d="m 57.813359,270.25979 c -0.164873,-0.27917 -1.059474,-1.90208 -1.988007,-3.60647 -2.0592,-3.77981 -5.130316,-9.40884 -5.560369,-10.19156 -0.264245,-0.48094 -0.295945,-0.58927 -0.194961,-0.66623 0.153425,-0.11691 2.679267,-0.12095 2.893264,-0.005 0.228334,0.12397 4.524011,8.15116 5.683427,10.62044 0.334286,0.71195 0.631516,1.31319 0.660514,1.3361 0.05469,0.0432 0.109202,-0.72831 0.14901,-2.10917 0.01271,-0.44078 0.08032,-2.09165 0.150246,-3.66859 l 0.127136,-2.86717 -0.799076,-1.39476 c -1.017618,-1.77623 -1.041735,-1.68671 0.454469,-1.68671 1.582769,0 0.712672,-1.25011 5.987179,8.60208 0.566361,1.0579 1.115332,2.11579 1.219938,2.35088 0.481787,1.08274 0.512866,0.9899 0.354891,-1.0603 -0.06305,-0.81826 -0.116794,-2.18871 -0.119432,-3.04546 -0.0026,-0.85675 -0.01155,-2.71179 -0.01981,-4.12231 -0.01935,-3.30592 -0.137668,-3.04546 1.383481,-3.04546 1.02387,0 1.248191,0.0284 1.339785,0.16937 0.103788,0.15977 0.253048,14.0724 0.128343,14.47196 -0.148805,0.47678 -0.35946,0.42837 -1.780403,0.40178 l -1.57842,-0.0296 -0.252809,-0.42619 c -0.287689,-0.485 -2.428485,-4.3834 -3.46285,-6.30587 -0.379462,-0.70527 -0.699982,-1.21017 -0.712271,-1.12201 -0.01228,0.0882 -0.06127,1.29031 -0.108851,2.67145 -0.04758,1.38114 -0.115206,3.12427 -0.150285,3.87361 l -0.06378,1.36244 h -1.536261 -1.904433 z"
       id="path29"
       sodipodi:nodetypes="cssscsssscssssssssssccssssscccc" /><path
       style="fill:#163b93;fill-opacity:1;stroke-width:0.999999"
       d="m 140.24181,270.25979 c -0.16488,-0.27917 -1.05948,-1.90208 -1.98801,-3.60647 -2.0592,-3.77981 -5.13032,-9.40884 -5.56037,-10.19156 -0.26424,-0.48094 -0.29594,-0.58927 -0.19496,-0.66623 0.15342,-0.11691 2.67927,-0.12095 2.89326,-0.005 0.22834,0.12397 4.52401,8.15116 5.68343,10.62044 0.33429,0.71195 0.63152,1.31319 0.66051,1.3361 0.0547,0.0432 0.10921,-0.72831 0.14901,-2.10917 0.0127,-0.44078 0.0803,-2.09165 0.15025,-3.66859 l 0.12714,-2.86717 -0.79908,-1.39476 c -1.01762,-1.77623 -1.04173,-1.68671 0.45447,-1.68671 1.58277,0 0.71267,-1.25011 5.98718,8.60208 0.56636,1.0579 1.11533,2.11579 1.21994,2.35088 0.48178,1.08274 0.51286,0.9899 0.35489,-1.0603 -0.0631,-0.81826 -0.1168,-2.18871 -0.11943,-3.04546 -0.003,-0.85675 -0.0115,-2.71179 -0.0198,-4.12231 -0.0194,-3.30592 -0.13767,-3.04546 1.38348,-3.04546 1.02387,0 1.24819,0.0284 1.33978,0.16937 0.10379,0.15977 0.25305,14.0724 0.12834,14.47196 -0.1488,0.47678 -0.35946,0.42837 -1.7804,0.40178 l -1.57842,-0.0296 -0.25281,-0.42619 c -0.28769,-0.485 -2.42848,-4.3834 -3.46285,-6.30587 -0.37946,-0.70527 -0.69998,-1.21017 -0.71227,-1.12201 -0.0123,0.0882 -0.0613,1.29031 -0.10885,2.67145 -0.0476,1.38114 -0.11521,3.12427 -0.15028,3.87361 l -0.0638,1.36244 h -1.53627 -1.90443 z"
       id="path28"
       sodipodi:nodetypes="cssscsssscssssssssssccssssscccc" /><text
       xml:space="preserve"
       style="font-size:9.8778px;font-family:Gutcruncher;-inkscape-font-specification:Gutcruncher;text-align:center;writing-mode:lr-tb;direction:ltr;text-anchor:middle;display:inline;fill:#163b93;fill-opacity:1;stroke:#bd800f;stroke-width:0.300001;stroke-opacity:1"
       x="135.11601"
       y="205.61354"
       id="text23"><tspan
         sodipodi:role="line"
         id="tspan23"
         x="135.11601"
         y="205.61354"
         style="stroke-width:0.3">(sofia sans)</tspan></text></g></svg>
