<?xml version="1.0" encoding="UTF-8" standalone="no"?>
<!-- Created with Inkscape (http://www.inkscape.org/) -->

<svg
   width="22.776896mm"
   height="22.17897mm"
   viewBox="0 0 22.776896 22.17897"
   version="1.1"
   id="svg1"
   xmlns="http://www.w3.org/2000/svg"
   xmlns:svg="http://www.w3.org/2000/svg">
  <defs
     id="defs1" />
  <g
     id="layer1"
     transform="translate(-124.35417,-59.531245)">
    <g
       id="g13"
       transform="matrix(0.61886125,0,0,0.61877636,72.153325,3.62424)"
       style="display:inline;stroke-width:1.61598">
      <path
         id="path6"
         style="fill:currentColor;fill-opacity:1;stroke:#decd87;stroke-width:0.484795"
         d="m 92.76852,109.87767 c 1.527053,-0.0174 1.82381,1.27306 1.82381,2.00596 v 12.74523 c 0,0.7329 -0.590021,1.32292 -1.322917,1.32292 h -7.354166 c -0.732896,0 -1.331915,-0.59008 -1.322917,-1.32292 l 0.09107,-7.41755 c 0.0213,-1.73456 0.929835,-3.38228 3.053275,-4.85194 2.377089,-1.64521 3.504792,-2.46429 5.031845,-2.4817 z" />
      <path
         id="path7"
         style="fill:currentColor;fill-opacity:1;stroke:#decd87;stroke-width:0.484795"
         d="m 105.92834,101.68124 c 1.52705,-0.0174 1.82381,1.27306 1.82381,2.00596 v 20.94166 c 0,0.7329 -0.59002,1.32292 -1.32292,1.32292 h -7.354161 c -0.732896,0 -1.327192,-0.59004 -1.322917,-1.32292 l 0.09107,-15.61398 c 0.01012,-1.73466 0.929835,-3.38228 3.053278,-4.85194 2.37709,-1.64521 3.50479,-2.46429 5.03184,-2.4817 z" />
      <g
         id="g8"
         transform="translate(52.808405)"
         style="stroke:#decd87;stroke-width:1.61598;stroke-opacity:1">
        <path
           id="rect5"
           style="fill:#fab431;fill-opacity:1;stroke:#decd87;stroke-width:0.484795;stroke-opacity:1"
           d="m 59.654141,90.593304 c -1.277346,0 -1.550596,0.10639 -1.550596,1.45403 v 32.581526 c 0,0.7329 0.59002,1.32292 1.32292,1.32292 h 2.062496 c 4.5579,0 6.6183,-4.64123 6.61459,-5.55625 l -0.0911,-22.491356 c -0.012,-2.95269 -0.73561,-4.03388 -2.88252,-5.3073 -2.14691,-1.27342 -4.19844,-2.00357 -5.47579,-2.00357 z" />
        <path
           style="fill:#ffffff;stroke:#decd87;stroke-width:0.484795;stroke-opacity:1"
           d="m 61.495984,98.106694 -0.0228,7.718296 c 0,0 0.97901,0.36429 1.63928,0.36429 0.66027,0 2.52723,0.11384 2.52723,-2.80045 0,-2.91428 -1.03356,-3.740136 -2.21387,-4.421586 -1.18031,-0.68145 -1.92988,-0.86055 -1.92988,-0.86055 z"
           id="path8" />
      </g>
    </g>
  </g>
</svg>
